# xmcd
#
# Track frame offsets:
#	150
#	14185
#	36674
#	68433
#	78567
#	96779
#	118877
#	134244
#	151743
#	168164
#
# Disc length: 2490 seconds
#
# Revision: 0
# Processed by: cddbd v1.5.1PL0 Copyright (c) Steve Scherf et al.
# Submitted via: dBpowerAMP V4.0
#
DISCID=8909b80a
DTITLE=Pat Hennessy - Triple Seven
DYEAR=1997
DGENRE=Blues
TTITLE0='69 Bonnie
TTITLE1=Hurricane
TTITLE2=Killing Floor
TTITLE3=Mississippi
TTITLE4=Manic Depression
TTITLE5=Desiree'
TTITLE6=No More Blues
TTITLE7=Any Questions
TTITLE8=Today's Music
TTITLE9=Night of the Living Shred
EXTD=
EXTT0=
EXTT1=
EXTT2=
EXTT3=
EXTT4=
EXTT5=
EXTT6=
EXTT7=
EXTT8=
EXTT9=
PLAYORDER=
